<?xml version="1.0" standalone="no"?><!DOCTYPE svg PUBLIC "-//W3C//DTD SVG 1.1//EN" "http://www.w3.org/Graphics/SVG/1.1/DTD/svg11.dtd"><svg class="icon" width="32px" height="32.00px" viewBox="0 0 1024 1024" version="1.1" xmlns="http://www.w3.org/2000/svg"><path fill="#666666" d="M954.548208 488.928538 552.555671 86.934978c-12.276604-12.277628-28.5308-19.155269-45.766346-19.368116-0.275269-0.00307-0.548492-0.005117-0.822738-0.005117-17.124006 0-33.134655 6.594185-45.160549 18.62008L68.384483 478.604402c-8.086166 8.086166-8.086166 21.195741 0 29.280884 8.086166 8.086166 21.194718 8.085142 29.280884 0L490.087944 115.463732c4.26207-4.261047 10.031471-6.567579 16.191774-6.488785 6.367011 0.077771 12.403494 2.650363 16.995069 7.241938l401.99356 401.992537c4.042059 4.043083 9.341762 6.064113 14.640442 6.064113 5.298679 0 10.598382-2.02103 14.640442-6.064113C962.634374 510.123256 962.634374 497.013681 954.548208 488.928538zM884.131439 556.832068c-11.434423 0-20.705578 9.269108-20.705578 20.704554l0 312.38366c0 12.890588-8.676613 23.779589-18.945491 23.779589L647.036509 913.699871c-11.435447 0-20.705578 9.270131-20.705578 20.705578 0 11.435447 9.270131 20.704554 20.705578 20.704554l197.443861 0c33.280987 0 60.356646-29.244045 60.356646-65.189721L904.837017 577.535599C904.835993 566.101175 895.565862 556.832068 884.131439 556.832068zM610.585319 735.320205 392.919904 735.320205c-11.435447 0-20.704554 9.270131-20.704554 20.705578l0 133.8945c0 12.890588-7.656377 23.779589-16.718777 23.779589L169.144328 913.699871c-9.0624 0-16.718777-10.890025-16.718777-23.779589L152.425551 577.535599c0-11.435447-9.270131-20.704554-20.704554-20.704554s-20.704554 9.269108-20.704554 20.704554l0 312.38366c0 35.945677 26.075889 65.189721 58.127885 65.189721l186.352245 0c32.051997 0 58.127885-29.244045 58.127885-65.189721L413.624459 776.730337l196.960861 0c11.435447 0 20.704554-9.270131 20.704554-20.705578C631.289873 744.590336 622.020766 735.320205 610.585319 735.320205z" /></svg>