<?xml version="1.0" standalone="no"?><!DOCTYPE svg PUBLIC "-//W3C//DTD SVG 1.1//EN" "http://www.w3.org/Graphics/SVG/1.1/DTD/svg11.dtd"><svg class="icon" width="32px" height="32.00px" viewBox="0 0 1024 1024" version="1.1" xmlns="http://www.w3.org/2000/svg"><path fill="#b4282d" d="M511.734964 93.934392c-120.233362 0-218.051201 97.816816-218.051201 218.050178 0 83.404572 47.077202 156.008146 116.048039 192.670138-20.541849 5.167696-40.702004 11.918447-60.392462 20.246113-49.676399 21.010523-94.284363 51.084469-132.585691 89.387843-38.299281 38.302351-68.370157 82.909292-89.37761 132.585691-21.75242 51.436486-32.781614 106.065687-32.781614 162.372088 0 10.471492 8.488325 18.960841 18.960841 18.960841s18.960841-8.489348 18.960841-18.960841c0-101.297081 39.439244-196.525955 111.052259-268.144086 71.618131-71.623247 166.855192-111.067608 268.165576-111.067608 120.233362 0 218.050178-97.816816 218.050178-218.050178S631.968325 93.934392 511.734964 93.934392zM511.74315 492.114091c-0.00307 0-0.005117 0-0.008186 0-0.00921 0-0.017396 0-0.026606 0-99.311867-0.014326-180.101891-80.814584-180.101891-180.128497 0-99.323123 80.805374-180.128497 180.128497-180.128497 99.323123 0 180.127474 80.805374 180.127474 180.128497C691.862437 411.305647 611.06218 492.109997 511.74315 492.114091zM864.416422 686.311001c-41.019229-64.782446-98.956779-116.996644-167.550017-150.999063-9.381671-4.649903-20.757766-0.813528-25.409716 8.567119-4.650927 9.382695-0.815575 20.75879 8.567119 25.409716 62.368466 30.916127 115.052362 78.396511 152.35392 137.309272 38.320771 60.519352 58.57507 130.594337 58.57507 202.64942 0 10.471492 8.489348 18.960841 18.960841 18.960841s18.960841-8.489348 18.960841-18.960841C928.875502 829.998541 906.584823 752.908792 864.416422 686.311001z" /></svg>